# 3ds Max Wavefront OBJ Exporter v0.97b - (c)2007 guruware
# File Created: 17.04.2019 01:45:30

mtllib bottom_decal.mtl

#
# object decal_bottom
#

v  30.1453 28.5789 35.8152
v  82.1974 28.5789 35.8152
v  82.1974 34.3067 35.8152
v  30.1453 34.3067 35.8152
v  30.1453 28.5789 28.6213
v  30.1453 34.3067 28.6213
v  82.1974 34.3067 28.6213
v  82.1974 28.5789 28.6213
# 8 vertices

vn 0.0000 0.0000 1.0000
vn -0.0000 0.0000 1.0000
vn 0.0000 0.0000 -1.0000
vn -0.0000 0.0000 -1.0000
# 4 vertex normals

vt -0.0000 0.1220 0.0000
vt 0.9990 0.1220 0.0000
vt 0.9990 0.2218 0.0000
vt -0.0000 0.2218 0.0000
vt 0.9995 -0.0000 0.0000
vt 0.9995 0.1105 0.0000
vt 0.0005 0.1105 0.0000
vt 0.0005 -0.0000 0.0000
# 8 texture coords

o decal_bottom
g decal_bottom
usemtl Material__651
s 4
f 1/1/1 2/2/1 3/3/2 4/4/2 
f 5/5/3 6/6/4 7/7/4 8/8/3 
# 2 polygons

